<?xml version="1.0" encoding="utf-8"?>
<svg xmlns="http://www.w3.org/2000/svg" xmlns:xlink="http://www.w3.org/1999/xlink" version="1.1" viewBox="0 0 782 390">
<title>A brand mark made up of the letter T turned through a right-angle to meet the letter D, the whole forming a shape like a shovel.</title>
<path d="M301.023 365.464c-5.036 0-7.554-2.511-7.554-7.534s5.036-8.581 15.109-10.674l20.921-2.511c13.947-2.93 25.763-7.744 35.448-14.441 12.785-8.79 20.921-23.231 24.408-43.323 2.324-12.975 3.293-23.44 2.905-31.393-.775-19.673-1.356-31.602-1.743-35.788H40.098c-13.947 0-22.664 3.977-26.151 11.929-1.937 4.186-3.099 15.906-3.487 35.161-.387 5.023-2.131 7.534-5.23 7.534-3.487 0-5.23-3.348-5.23-10.046 0-3.348.194-6.278.581-8.79.775-25.114 1.162-42.904 1.162-53.368 0-13.813-.193-26.789-.581-38.928-.387-12.138-.581-27.626-.581-46.462 0-9.627 1.55-14.441 4.649-14.441 3.487 0 5.424 9 5.811 26.999 0 12.975 2.519 21.347 7.555 25.114 3.099 2.093 11.041 3.139 23.826 3.139h348.095c-.388-41.439-2.325-67.181-5.811-77.227-8.911-26.37-32.737-41.857-71.479-46.462-11.622-1.255-17.434-4.185-17.434-8.79 0-5.023 4.068-7.534 12.204-7.534 4.261 0 8.523.209 12.785.628l13.366 1.255c17.821 1.256 41.26 3.14 70.316 5.651v28.254L402.72 181.5c-.387 15.069-.193 38.509.582 70.321l1.743 104.226c-21.695.837-53.851 3.557-96.467 8.162-1.162 0-2.615.209-4.358.628-1.744.418-2.809.627-3.197.627z" fill-rule="nonzero"/><path d="M781.671 195.655c0 65.779-24.834 116.983-74.502 153.61-36.342 26.909-85.001 40.364-145.975 40.364-1.615 0-8.783-.187-21.503-.561-12.72-.373-31.194-.56-55.422-.56h-30.285l-47.851.56c-2.826.374-5.855.561-9.085.561-7.673 0-11.509-1.869-11.509-5.606 0-3.364 6.461-5.046 19.383-5.046 16.556 0 26.853-2.803 30.891-8.409 1.615-2.616 2.423-9.717 2.423-21.303V47.092c0-18.314-1.515-28.965-4.543-31.955-3.029-2.99-13.427-4.485-31.194-4.485-9.288 0-13.931-2.056-13.931-6.167C388.568 1.495 392 0 398.865 0c-.404 0 4.038.187 13.325.561 9.288.373 18.373.56 27.257.56h64.811c72.684 0 124.169 4.672 154.454 14.016 36.747 11.212 66.426 33.356 89.039 66.433 22.613 33.076 33.92 71.105 33.92 114.085zm-67.839-2.242c0-62.042-13.124-107.545-39.371-136.51-26.247-28.966-67.234-43.448-122.958-43.448-27.055 0-43.409 2.616-49.063 7.848-2.422 2.617-3.634 11.587-3.634 26.91v298.248c0 10.465.303 16.819.909 19.061.605 2.243 2.322 4.112 5.148 5.607 9.692 4.485 30.084 6.727 61.176 6.727 43.611 0 78.742-14.202 105.393-42.607 28.267-29.899 42.4-77.178 42.4-141.836z" fill-rule="nonzero"/></svg>