<?xml version="1.0" encoding="utf-8"?>
<svg xmlns="http://www.w3.org/2000/svg" xmlns:xlink="http://www.w3.org/1999/xlink" version="1.1" viewBox="0 0 723 359">
	<title>A brand mark made up of the letter T turned through a right-angle to meet the letter D, the whole forming a shape like a shovel.</title>
	<path d="M419.806 25.783c-8.725-4.409-19.072-7.441-31.04-9.097-10.206-1.283-15.309-4.278-15.309-8.985 0-5.134 3.572-7.701 10.716-7.701 3.742 0 7.484.214 11.227.642l6.061.663c6.855.246 13.583.369 20.183.369h56.911c63.825 0 109.034 4.294 135.628 12.883 32.268 10.306 58.329 30.66 78.186 61.062 19.857 30.403 29.785 65.357 29.785 104.863 0 60.462-21.807 107.526-65.421 141.192-31.912 24.734-74.64 37.102-128.182 37.102-1.418 0-7.712-.172-18.882-.516-11.169-.343-27.391-.515-48.666-.515h-26.594l-42.018.515c-2.482.344-5.142.516-7.979.516-5.968 0-9.293-1.348-9.974-4.045-2.015-1.126-3.022-3.422-3.022-6.888 0-5.134 4.422-8.771 13.267-10.91l18.371-2.567c6.301-1.541 12.107-3.591 17.419-6.152.071-1.974.107-4.153.107-6.54V206.652H35.21c-12.247 0-19.901 4.065-22.963 12.194-1.701 4.279-2.722 16.259-3.062 35.94-.34 5.134-1.871 7.701-4.592 7.701-3.062 0-4.593-3.423-4.593-10.268 0-3.423.17-6.418.51-8.985.681-25.671 1.021-43.855 1.021-54.551 0-14.119-.17-27.383-.51-39.791C.68 136.485.51 120.654.51 101.401c0-9.841 1.361-14.761 4.083-14.761 3.061 0 4.762 9.199 5.103 27.596 0 13.264 2.211 21.821 6.633 25.672 2.722 2.139 9.696 3.208 20.922 3.208H420.58V43.929c0-7.415-.258-13.464-.774-18.146zm242.778 152.638c0-57.026-11.524-98.851-34.572-125.475-23.048-26.623-59.038-39.935-107.971-39.935-23.757 0-38.118 2.404-43.082 7.214-2.127 2.405-3.191 10.649-3.191 24.734v274.139c0 9.619.266 15.459.798 17.52.531 2.061 2.038 3.779 4.521 5.153 8.51 4.122 26.416 6.183 53.719 6.183 38.295 0 69.144-13.054 92.547-39.162 24.821-27.483 37.231-70.94 37.231-130.371z" fill-rule="nonzero"/>
</svg>
